Coordinates
version=1
nRows=25
nColumns=28
inDegrees=yes

Units are S.I. units (second, meters, Newtons, ...)
Angles are in degrees.

endheader
time	pelvis_tilt	pelvis_list	pelvis_rotation	pelvis_tx	pelvis_ty	pelvis_tz	hip_flexion_r	hip_adduction_r	hip_rotation_r	knee_angle_r	ankle_angle_r	subtalar_angle_r	mtp_angle_r	hip_flexion_l	hip_adduction_l	hip_rotation_l	knee_angle_l	socket_flexion	socket_adduction	socket_rotation	socket_tx	socket_ty	socket_tz	foot_flex	lumbar_extension	lumbar_bending	lumbar_rotation
      0.54166667	      0.81065112	     -4.35481940	     11.54712270	      0.01583656	      0.96618927	      0.24912743	     23.66628774	      2.39168754	     -6.92969229	     -9.86129744	      6.22719242	    -19.23163921	     -7.05482791	    -19.83632458	     -6.28977057	     12.38746359	     -9.38191345	      0.00000000	      0.00000000	      0.00000000	      0.00000000	     -0.00169681	      0.00000000	      9.40370234	     -7.43970287	      4.07432817	    -18.24613325
      0.54583333	      0.85886052	     -4.42572285	     11.57131202	      0.02219877	      0.96482057	      0.24926878	     24.07116350	      2.50254441	     -6.97224663	    -11.03037762	      5.72700260	    -19.36424455	     -7.03755158	    -20.19869036	     -6.43225205	     12.33130721	     -9.53132788	      0.00000000	      0.00000000	      0.00000000	      0.00000000	     -0.00156625	      0.00000000	      9.45117987	     -7.48408627	      4.23382150	    -18.30728305
      0.55000000	      0.58638445	     -4.46173150	     11.43665632	      0.02851499	      0.96300580	      0.24967256	     24.87809072	      2.58440733	     -6.72920582	    -12.31002560	      5.00451245	    -19.85815985	     -6.16001554	    -20.17594113	     -6.41332631	     12.19889592	     -9.81011886	      0.00000000	      0.00000000	      0.00000000	      0.00000000	     -0.00148750	      0.00000000	      9.48494858	     -7.15280354	      4.28250965	    -18.14494145
      0.55416667	      0.67157008	     -4.54749473	     11.62413189	      0.03508031	      0.96194545	      0.24961518	     24.95638345	      2.72916943	     -6.51618310	    -13.03149273	      4.76021738	    -19.81005743	     -6.15789625	    -20.45948813	     -6.61884298	     12.28116829	    -10.11633307	      0.00000000	      0.00000000	      0.00000000	      0.00000000	     -0.00116508	      0.00000000	      9.48361299	     -7.05196241	      4.36008056	    -18.17047845
      0.55833333	      0.50187423	     -4.62403884	     11.24909781	      0.04132393	      0.96004404	      0.25037353	     25.93263644	      2.88665367	     -6.57582441	    -14.79989075	      3.89682451	    -20.08633683	     -5.77262288	    -20.58518474	     -6.57018471	     11.82180410	    -10.39093839	      0.00000000	      0.00000000	      0.00000000	      0.00000000	     -0.00132002	      0.00000000	      9.47523374	     -7.03344812	      4.53291296	    -18.11324192
      0.56250000	      0.53377853	     -4.73063588	     11.27339804	      0.04773430	      0.95877464	      0.25054178	     26.27213027	      3.06749650	     -6.40313660	    -15.88351579	      3.46649961	    -20.08799798	     -5.70927595	    -20.80522052	     -6.71542339	     11.87415046	    -10.74929870	      0.00000000	      0.00000000	      0.00000000	      0.00000000	     -0.00123569	      0.00000000	      9.49304952	     -7.10348635	      4.80624766	    -18.13657852
      0.56666667	      0.54346574	     -4.83786470	     11.17132529	      0.05409886	      0.95742699	      0.25096517	     26.73950891	      3.26530276	     -6.33314829	    -17.13967695	      2.92366028	    -20.14112606	     -5.61853731	    -20.96730174	     -6.80343940	     11.70701405	    -11.20137986	      0.00000000	      0.00000000	      0.00000000	      0.00000000	     -0.00120269	      0.00000000	      9.43424590	     -7.13364536	      5.00883537	    -18.14268497
      0.57083333	     -0.13042738	     -4.77544503	     10.72105581	      0.06050475	      0.95515440	      0.25208941	     28.01902373	      3.36137492	     -5.61320589	    -18.58250975	      2.07928510	    -20.86270801	     -4.48474886	    -20.38253456	     -6.48550405	     11.37133345	    -11.82710904	      0.00000000	      0.00000000	      0.00000000	      0.00000000	     -0.00110821	      0.00000000	      9.36689844	     -6.35119924	      4.76004008	    -17.61015204
      0.57500000	     -0.05152075	     -4.90910964	     10.69543944	      0.06693301	      0.95407118	      0.25242320	     28.29742604	      3.59541701	     -5.50939173	    -19.65698031	      1.63436433	    -20.86026105	     -4.40462082	    -20.52554907	     -6.62490794	     11.28676362	    -12.39987677	      0.00000000	      0.00000000	      0.00000000	      0.00000000	     -0.00103958	      0.00000000	      9.24383402	     -6.46830319	      5.02824284	    -17.66041347
      0.57916667	     -0.45578706	     -4.93313799	     10.36252260	      0.07333737	      0.95227273	      0.25336821	     29.20014181	      3.80095218	     -4.96646867	    -20.93322351	      0.78140706	    -21.55438336	     -3.27569208	    -20.13779110	     -6.46819724	     11.00110070	    -13.11348603	      0.00000000	      0.00000000	      0.00000000	      0.00000000	     -0.00099426	      0.00000000	      9.08299621	     -6.01107833	      4.96434320	    -17.31746841
      0.58333333	     -0.36163711	     -5.07495479	     10.32202034	      0.07980740	      0.95135304	      0.25373723	     29.40921602	      4.06241913	     -4.82846023	    -21.93513618	      0.42811368	    -21.50179155	     -3.23058074	    -20.20448298	     -6.59306186	     10.91800703	    -13.84679556	      0.00000000	      0.00000000	      0.00000000	      0.00000000	     -0.00087175	      0.00000000	      8.90452078	     -6.14351676	      5.25400104	    -17.37073553
      0.58750000	     -0.33768633	     -5.19803811	     10.18581511	      0.08636137	      0.95033558	      0.25433239	     29.73040266	      4.32956984	     -4.68843357	    -23.02529501	      0.04644779	    -21.51367689	     -3.14300118	    -20.18671743	     -6.65833918	     10.69084563	    -14.62567855	      0.00000000	      0.00000000	      0.00000000	      0.00000000	     -0.00072552	      0.00000000	      8.69477167	     -6.15755740	      5.43417492	    -17.37366745
      0.59166667	     -0.80848027	     -5.20520857	      9.79762823	      0.09283026	      0.94862563	      0.25539219	     30.63883860	      4.56849633	     -4.02932224	    -24.25184488	     -0.43713491	    -21.96381522	     -2.61263204	    -19.57936874	     -6.43622975	     10.34249394	    -15.59626531	      0.00000000	      0.00000000	      0.00000000	      0.00000000	     -0.00059414	      0.00000000	      8.43772408	     -5.61561797	      5.34527503	    -16.98417776
      0.59583333	     -0.70770666	     -5.36528325	      9.76939718	      0.09931519	      0.94794265	      0.25585079	     30.74439527	      4.86536470	     -3.88819658	    -25.11550197	     -0.64721454	    -21.93736021	     -2.57382453	    -19.49610970	     -6.56751243	     10.25974462	    -16.55600305	      0.00000000	      0.00000000	      0.00000000	      0.00000000	     -0.00042944	      0.00000000	      8.09817453	     -5.76366526	      5.61749703	    -17.00546904
      0.60000000	     -0.65348838	     -5.52580052	      9.66467446	      0.10587806	      0.94720110	      0.25637257	     30.93133623	      5.17156152	     -3.75733332	    -26.06326434	     -0.85155635	    -21.95899034	     -2.51717271	    -19.33428544	     -6.66047861	     10.04623929	    -17.58811042	      0.00000000	      0.00000000	      0.00000000	      0.00000000	     -0.00023378	      0.00000000	      7.77160206	     -5.84053218	      5.86032346	    -17.00343727
      0.60416667	     -0.60572001	     -5.68131158	      9.57635202	      0.11241459	      0.94657614	      0.25691381	     31.06458702	      5.48246213	     -3.59470543	    -26.91403003	     -0.98603378	    -21.97743492	     -2.46375067	    -19.08981195	     -6.74918057	      9.82582684	    -18.72429284	      0.00000000	      0.00000000	      0.00000000	      0.00000000	      0.00002935	      0.00000000	      7.35262315	     -5.90950417	      6.09528731	    -16.98670776
      0.60833333	     -0.55926072	     -5.83679851	      9.49680816	      0.11895822	      0.94596853	      0.25751157	     31.18001091	      5.80112176	     -3.42376069	    -27.74244081	     -1.07415646	    -22.00780909	     -2.40956438	    -18.79865370	     -6.84811650	      9.56961398	    -19.91946163	      0.00000000	      0.00000000	      0.00000000	      0.00000000	      0.00026011	      0.00000000	      6.91565395	     -5.94840745	      6.31421785	    -16.95803787
      0.61250000	     -0.47360561	     -6.00162508	      9.41955535	      0.12562202	      0.94555285	      0.25807325	     31.18849452	      6.13300894	     -3.27299488	    -28.49598175	     -1.12118172	    -22.02813778	     -2.36369271	    -18.50621408	     -6.95842280	      9.33503547	    -21.16858072	      0.00000000	      0.00000000	      0.00000000	      0.00000000	      0.00066620	      0.00000000	      6.43907754	     -5.93729814	      6.49584737	    -16.92990123
      0.61666667	     -1.34345415	     -6.09508367	      8.88938626	      0.13209125	      0.94357989	      0.25949757	     32.40435278	      6.50789363	     -2.56701872	    -29.58453905	     -1.19059530	    -22.63077161	     -2.09181463	    -17.11654933	     -6.73689614	      8.79590080	    -22.69238704	      0.00000000	      0.00000000	      0.00000000	      0.00000000	      0.00077463	      0.00000000	      6.02383528	     -4.98469488	      6.46315340	    -16.38465782
      0.62083333	     -1.19354607	     -6.27003782	      8.85435326	      0.13863790	      0.94344044	      0.26002265	     32.26064289	      6.83609862	     -2.51419751	    -30.18636392	     -1.18002868	    -22.63821580	     -2.05715900	    -16.74885350	     -6.88828573	      8.49246394	    -24.11172129	      0.00000000	      0.00000000	      0.00000000	      0.00000000	      0.00126072	      0.00000000	      5.43042094	     -5.14849249	      6.69227934	    -16.39302543
      0.62500000	     -1.08561925	     -6.48101592	      8.79556491	      0.14513784	      0.94325110	      0.26058201	     32.15849349	      7.20849844	     -2.45075104	    -30.78084707	     -1.09235083	    -22.67796454	     -2.01207869	    -16.27615867	     -7.07559724	      8.11518772	    -25.61175315	      0.00000000	      0.00000000	      0.00000000	      0.00000000	      0.00171187	      0.00000000	      4.87327511	     -5.30645683	      6.96653977	    -16.39151468
      0.62916667	     -0.98669621	     -6.69653044	      8.73330664	      0.15166905	      0.94312507	      0.26123897	     32.02325300	      7.59499665	     -2.39617966	    -31.31713826	     -0.96460123	    -22.72735980	     -1.96681852	    -15.73612660	     -7.29119761	      7.67376693	    -27.17809766	      0.00000000	      0.00000000	      0.00000000	      0.00000000	      0.00222660	      0.00000000	      4.27375624	     -5.41970105	      7.22961868	    -16.37792738
      0.63333333	     -1.28536183	     -7.10493874	      8.55900074	      0.15834031	      0.94230563	      0.26212997	     32.31513313	      8.21647009	     -2.15662366	    -31.82611067	     -0.65917274	    -23.04463423	     -1.92495028	    -14.73002985	     -7.66546237	      7.07991278	    -28.82061387	      0.00000000	      0.00000000	      0.00000000	      0.00000000	      0.00242580	      0.00000000	      3.76872492	     -4.94278808	      7.66015797	    -16.20777385
      0.63750000	     -1.13145002	     -7.26343841	      8.51702324	      0.16480823	      0.94242883	      0.26281472	     32.05094693	      8.54499329	     -2.15084436	    -32.25975977	     -0.59386976	    -23.06801959	     -1.90555862	    -14.15215357	     -7.87938922	      6.56774401	    -30.47393890	      0.00000000	      0.00000000	      0.00000000	      0.00000000	      0.00309164	      0.00000000	      3.10097007	     -5.09848455	      7.82263032	    -16.19247657
      0.64166667	     -1.47085504	     -7.66379653	      8.35429903	      0.17129976	      0.94175362	      0.26388555	     32.30227623	      9.18333409	     -1.86992710	    -32.60140123	     -0.52135874	    -23.63495188	     -2.11422869	    -12.94656487	     -8.31948723	      5.90447907	    -32.29471864	      0.00000000	      0.00000000	      0.00000000	      0.00000000	      0.00349332	      0.00000000	      2.64543949	     -4.66552428	      8.22915707	    -15.98031936
